<!DOCTYPE svg PUBLIC "-//W3C//DTD SVG 1.1//EN" "http://www.w3.org/Graphics/SVG/1.1/DTD/svg11.dtd">
<!-- Uploaded to: SVG Repo, www.svgrepo.com, Transformed by: SVG Repo Mixer Tools -->
<svg fill="#fff" height="64px" width="64px" version="1.1" id="Layer_1" xmlns="http://www.w3.org/2000/svg" xmlns:xlink="http://www.w3.org/1999/xlink" viewBox="0 0 330 330" xml:space="preserve" stroke="#fff">
<g id="SVGRepo_bgCarrier" stroke-width="0"/>
<g id="SVGRepo_tracerCarrier" stroke-linecap="round" stroke-linejoin="round"/>
<g id="SVGRepo_iconCarrier"> <path id="XMLID_18_" d="M315,150l-247.5,0.001V127.5c0-6.067-3.655-11.537-9.26-13.858c-5.607-2.322-12.058-1.038-16.347,3.252 l-37.5,37.5c-5.858,5.858-5.858,15.355,0,21.213l37.5,37.5c2.87,2.87,6.706,4.394,10.61,4.394c1.932,0,3.881-0.374,5.737-1.142 c5.605-2.322,9.26-7.791,9.26-13.858v-22.499L315,180c8.284,0,15-6.716,15-15C330,156.716,323.284,150,315,150z"/> </g>
</svg>