<svg width="24" height="25" viewBox="0 0 24 25" fill="none" xmlns="http://www.w3.org/2000/svg">
<path d="M16 18.8C16.5304 18.8 17.0391 19.0108 17.4142 19.3858C17.7893 19.7609 18 20.2696 18 20.8C18 20.2696 18.2107 19.7609 18.5858 19.3858C18.9609 19.0108 19.4696 18.8 20 18.8C19.4696 18.8 18.9609 18.5893 18.5858 18.2143C18.2107 17.8392 18 17.3305 18 16.8C18 17.3305 17.7893 17.8392 17.4142 18.2143C17.0391 18.5893 16.5304 18.8 16 18.8ZM16 6.80005C16.5304 6.80005 17.0391 7.01076 17.4142 7.38584C17.7893 7.76091 18 8.26962 18 8.80005C18 8.26962 18.2107 7.76091 18.5858 7.38584C18.9609 7.01076 19.4696 6.80005 20 6.80005C19.4696 6.80005 18.9609 6.58934 18.5858 6.21426C18.2107 5.83919 18 5.33048 18 4.80005C18 5.33048 17.7893 5.83919 17.4142 6.21426C17.0391 6.58934 16.5304 6.80005 16 6.80005ZM9 18.8C9 17.2087 9.63214 15.6826 10.7574 14.5574C11.8826 13.4322 13.4087 12.8 15 12.8C13.4087 12.8 11.8826 12.1679 10.7574 11.0427C9.63214 9.91747 9 8.39135 9 6.80005C9 8.39135 8.36786 9.91747 7.24264 11.0427C6.11742 12.1679 4.5913 12.8 3 12.8C4.5913 12.8 6.11742 13.4322 7.24264 14.5574C8.36786 15.6826 9 17.2087 9 18.8Z" stroke="#28A745" stroke-width="2" stroke-linecap="round" stroke-linejoin="round"/>
</svg>
