<svg width="20" height="20" viewBox="0 0 20 20" fill="none" xmlns="http://www.w3.org/2000/svg">
<g clip-path="url(#clip0_48_294)">
<path d="M9.10035 2.38996C9.19206 2.23259 9.32342 2.10202 9.48134 2.01127C9.63926 1.92052 9.81822 1.87276 10.0004 1.87276C10.1825 1.87276 10.3614 1.92052 10.5194 2.01127C10.6773 2.10202 10.8086 2.23259 10.9004 2.38996L13.2295 6.38829L17.7529 7.36829C17.9308 7.40695 18.0955 7.49158 18.2305 7.61373C18.3655 7.73589 18.4662 7.8913 18.5224 8.06448C18.5786 8.23765 18.5885 8.42255 18.551 8.60072C18.5135 8.7789 18.43 8.94413 18.3087 9.07996L15.2254 12.5308L15.692 17.135C15.7104 17.3163 15.681 17.4992 15.6065 17.6656C15.5321 17.8319 15.4154 17.9758 15.268 18.0829C15.1205 18.19 14.9476 18.2566 14.7664 18.276C14.5852 18.2953 14.4021 18.2668 14.2354 18.1933L10.0004 16.3266L5.76535 18.1933C5.59862 18.2668 5.41551 18.2953 5.23432 18.276C5.05312 18.2566 4.88017 18.19 4.73275 18.0829C4.58532 17.9758 4.46857 17.8319 4.39416 17.6656C4.31975 17.4992 4.29028 17.3163 4.30869 17.135L4.77535 12.5308L1.69202 9.08079C1.57054 8.94498 1.48682 8.77968 1.4492 8.60139C1.41158 8.4231 1.42139 8.23806 1.47764 8.06475C1.53389 7.89144 1.63462 7.73592 1.76978 7.61371C1.90493 7.49149 2.06977 7.40687 2.24785 7.36829L6.77119 6.38829L9.10035 2.38996Z" fill="#CBD5E1"/>
</g>
<defs>
<clipPath id="clip0_48_294">
<rect width="20" height="20" fill="white"/>
</clipPath>
</defs>
</svg>
