<svg width="40" height="40" viewBox="0 0 40 40" fill="none" xmlns="http://www.w3.org/2000/svg">
<g clip-path="url(#clip0_48_229)">
<path d="M10.2882 21.6733L10.5715 22.2917C11.784 24.7994 13.6935 26.9046 16.0715 28.355L16.5132 28.6133C16.56 28.6395 16.5991 28.6777 16.6262 28.724C16.6534 28.7703 16.6677 28.823 16.6677 28.8767C16.6677 28.9303 16.6534 28.983 16.6262 29.0293C16.5991 29.0756 16.56 29.1138 16.5132 29.14C13.9334 30.5909 11.8599 32.797 10.5715 35.4617L10.2882 36.0817C10.2631 36.1371 10.2225 36.184 10.1714 36.217C10.1202 36.2499 10.0607 36.2674 9.99986 36.2674C9.93904 36.2674 9.87951 36.2499 9.82837 36.217C9.77724 36.184 9.73668 36.1371 9.71153 36.0817L9.4282 35.4617C8.13985 32.797 6.06631 30.5909 3.48653 29.14C3.43968 29.1138 3.40067 29.0756 3.37351 29.0293C3.34635 28.983 3.33203 28.9303 3.33203 28.8767C3.33203 28.823 3.34635 28.7703 3.37351 28.724C3.40067 28.6777 3.43968 28.6395 3.48653 28.6133L3.9282 28.355C6.30621 26.9046 8.21576 24.7994 9.4282 22.2917L9.71153 21.6733C9.73668 21.618 9.77724 21.571 9.82837 21.5381C9.87951 21.5051 9.93904 21.4876 9.99986 21.4876C10.0607 21.4876 10.1202 21.5051 10.1714 21.5381C10.2225 21.571 10.2631 21.618 10.2882 21.6733ZM25.1299 4.55001C27.3235 9.68852 31.153 13.9586 36.0232 16.6967C36.1051 16.7426 36.1732 16.8095 36.2207 16.8905C36.2681 16.9715 36.2931 17.0636 36.2931 17.1575C36.2931 17.2514 36.2681 17.3435 36.2207 17.4245C36.1732 17.5055 36.1051 17.5724 36.0232 17.6183C31.1526 20.3568 27.3231 24.6275 25.1299 29.7667C25.0865 29.8642 25.0158 29.9471 24.9264 30.0053C24.8369 30.0634 24.7324 30.0944 24.6257 30.0944C24.519 30.0944 24.4145 30.0634 24.325 30.0053C24.2355 29.9471 24.1649 29.8642 24.1215 29.7667C21.9283 24.6275 18.0988 20.3568 13.2282 17.6183C13.1463 17.5724 13.0782 17.5055 13.0307 17.4245C12.9833 17.3435 12.9583 17.2514 12.9583 17.1575C12.9583 17.0636 12.9833 16.9715 13.0307 16.8905C13.0782 16.8095 13.1463 16.7426 13.2282 16.6967C18.0984 13.9586 21.9279 9.68852 24.1215 4.55001C24.1649 4.45247 24.2355 4.36959 24.325 4.31142C24.4145 4.25325 24.519 4.22229 24.6257 4.22229C24.7324 4.22229 24.8369 4.25325 24.9264 4.31142C25.0158 4.36959 25.0865 4.45247 25.1299 4.55001Z" fill="#28A745"/>
</g>
<defs>
<clipPath id="clip0_48_229">
<rect width="40" height="40" fill="white"/>
</clipPath>
</defs>
</svg>
